<svg width="38" height="41" viewBox="0 0 38 41" fill="none" xmlns="http://www.w3.org/2000/svg">
<mask id="mask0_2604_6" style="mask-type:luminance" maskUnits="userSpaceOnUse" x="0" y="0" width="38" height="41">
<path d="M0 0.0560303H37.16V40.182H0V0.0560303Z" fill="white"/>
</mask>
<g mask="url(#mask0_2604_6)">
<path fill-rule="evenodd" clip-rule="evenodd" d="M35.513 21.604C35.513 25.1 34.413 28.549 32.387 31.397C30.398 34.1881 27.616 36.3169 24.402 37.507C21.0484 38.7293 17.3954 38.8658 13.96 37.897C10.6573 36.9493 7.7179 35.0259 5.527 32.379C3.31024 29.6943 1.97309 26.3927 1.697 22.922C1.66382 22.4835 1.64715 22.0438 1.647 21.604V1.70403H35.513V21.604ZM0 0.0560303V21.604C0 25.453 1.215 29.249 3.453 32.381C5.63492 35.4302 8.68112 37.755 12.198 39.055C15.8685 40.3918 19.8659 40.5433 23.627 39.488C27.2648 38.4496 30.5023 36.3324 32.912 33.416C35.6536 30.0897 37.1551 25.9146 37.16 21.604V0.0560303H0Z" fill="black"/>
</g>
<path fill-rule="evenodd" clip-rule="evenodd" d="M24.974 24.4601H23.373V27.6581H26.57V26.0001C26.1563 26.0001 25.7588 25.8396 25.4611 25.5523C25.1634 25.2651 24.9888 24.8735 24.974 24.4601ZM12.215 24.4601H10.614V27.6581H13.811V26.0001C13.3974 25.9998 13 25.8392 12.7024 25.552C12.4047 25.2648 12.23 24.8734 12.215 24.4601Z" fill="black"/>
<path fill-rule="evenodd" clip-rule="evenodd" d="M8.89909 18.05C8.90402 17.4213 9.09291 16.8078 9.44245 16.2852C9.79199 15.7625 10.2869 15.3537 10.8661 15.109C11.5072 14.8457 12.2155 14.7927 12.8887 14.9577C13.5619 15.1226 14.1653 15.4971 14.6121 16.027C15.072 16.6475 15.6703 17.1521 16.3595 17.5007C17.0487 17.8493 17.8098 18.0322 18.5821 18.035C20.1451 18.035 21.6421 17.272 22.5641 16.009C23.0168 15.4796 23.6267 15.1086 24.305 14.95C24.9833 14.7913 25.6945 14.8534 26.3351 15.127C26.9035 15.3762 27.3879 15.7844 27.7297 16.3025C28.0716 16.8205 28.2565 17.4264 28.2621 18.047V19.694C28.2721 20.498 28.5841 21.225 29.0821 21.782L29.0481 21.816C28.5 21.4456 27.8536 21.2478 27.1921 21.248H22.7431C21.8721 21.248 21.0791 21.583 20.4861 22.131V22.127C20.2524 21.8496 19.9609 21.6266 19.632 21.4736C19.3031 21.3205 18.9448 21.2412 18.5821 21.241H18.5801C18.2174 21.2423 17.8593 21.3222 17.5304 21.4751C17.2016 21.6281 16.9098 21.8505 16.6751 22.127V22.131C16.061 21.5627 15.2548 21.2473 14.4181 21.248H9.96809C9.28009 21.248 8.64309 21.459 8.11209 21.816L8.07809 21.783C8.60581 21.1987 8.89799 20.4394 8.89809 19.652V18.05H8.89909ZM28.8571 27.665C28.8571 28.515 28.1671 29.204 27.3171 29.204H22.7441C21.8241 29.204 21.0801 28.459 21.0801 27.54V24.576C21.0801 23.656 21.8251 22.912 22.7441 22.912H27.1941C28.1121 22.912 28.8571 23.657 28.8571 24.576V27.665ZM16.0811 27.54C16.0811 28.46 15.3361 29.204 14.4181 29.204H9.84309C9.43465 29.204 9.04295 29.0418 8.75414 28.753C8.46534 28.4642 8.30309 28.0725 8.30309 27.664V24.576C8.30309 23.656 9.04909 22.912 9.96809 22.912H14.4181C15.3361 22.912 16.0811 23.657 16.0811 24.576V27.54ZM7.47009 22.316L7.50409 22.35C6.94883 22.9585 6.64071 23.7523 6.64009 24.576V27.665C6.63995 28.0857 6.72271 28.5023 6.88363 28.8909C7.04455 29.2796 7.28048 29.6327 7.57793 29.9302C7.87538 30.2276 8.22853 30.4636 8.6172 30.6245C9.00586 30.7854 9.42243 30.8682 9.84309 30.868H14.4181C15.3006 30.8678 16.1468 30.517 16.7707 29.8929C17.3946 29.2688 17.7451 28.4225 17.7451 27.54V25.532H17.7501V23.766C17.7501 22.655 19.4101 22.655 19.4101 23.766V25.532H19.4151V27.54C19.4151 28.4227 19.7657 29.2692 20.3898 29.8933C21.014 30.5174 21.8604 30.868 22.7431 30.868H27.3171C27.7377 30.8682 28.1543 30.7854 28.543 30.6245C28.9316 30.4636 29.2848 30.2276 29.5822 29.9302C29.8797 29.6327 30.1156 29.2796 30.2765 28.8909C30.4375 28.5023 30.5202 28.0857 30.5201 27.665V24.575C30.5201 23.718 30.1901 22.941 29.6571 22.351L29.6921 22.316C30.2001 22.656 30.8081 22.856 31.4651 22.856H31.4981V18.05C31.4981 17.746 31.4861 17.445 31.4651 17.147V11.642H28.2041V8.45103H25.0241V6.94003L25.0121 6.93303V5.23303H18.6051V5.23403C15.9706 5.22269 13.3957 6.01728 11.2257 7.51122C9.0558 9.00516 7.39463 11.127 6.46509 13.592C5.93427 15.018 5.66267 16.5274 5.66309 18.049V22.854H5.69509C6.35209 22.854 6.96209 22.655 7.47009 22.316Z" fill="black"/>
</svg>
